<svg width="141" height="42" viewBox="0 0 141 42" fill="none" xmlns="http://www.w3.org/2000/svg">
<path d="M83.0381 27.3696H80.8857V21.3672H80.8486C80.1992 22.6042 79.1385 23.2227 77.6665 23.2227C76.4976 23.2227 75.5575 22.799 74.8462 21.9517C74.1411 21.0981 73.7886 19.9385 73.7886 18.4727C73.7886 16.8955 74.1751 15.6369 74.9482 14.6968C75.7275 13.7505 76.7728 13.2773 78.084 13.2773C79.3581 13.2773 80.2796 13.7907 80.8486 14.8174H80.8857V13.5H83.0381V27.3696ZM80.9136 18.6768V17.4521C80.9136 16.7656 80.6909 16.1842 80.2456 15.708C79.8065 15.2318 79.2467 14.9937 78.5664 14.9937C77.7686 14.9937 77.1377 15.2936 76.6738 15.8936C76.2161 16.4873 75.9873 17.3285 75.9873 18.417C75.9873 19.3818 76.21 20.1395 76.6553 20.6899C77.1006 21.2404 77.6758 21.5156 78.3809 21.5156C79.154 21.5156 79.7694 21.2466 80.2271 20.7085C80.6847 20.1704 80.9136 19.4932 80.9136 18.6768Z" fill="#2CB2DB"/>
<path d="M93.1411 23H91.0537V21.5156H91.0166C90.361 22.6536 89.3993 23.2227 88.1313 23.2227C87.1974 23.2227 86.4645 22.9691 85.9326 22.4619C85.4069 21.9548 85.144 21.2837 85.144 20.4487C85.144 18.6551 86.1769 17.6099 88.2427 17.313L91.063 16.9141C91.063 15.5596 90.4198 14.8823 89.1333 14.8823C88.0015 14.8823 86.981 15.272 86.0718 16.0513V14.168C87.0737 13.5742 88.2303 13.2773 89.5415 13.2773C91.9412 13.2773 93.1411 14.4587 93.1411 16.8213V23ZM91.063 18.3335L89.0684 18.6118C88.4499 18.6922 87.9829 18.8438 87.6675 19.0664C87.3582 19.2829 87.2036 19.6663 87.2036 20.2168C87.2036 20.6188 87.3459 20.9497 87.6304 21.2095C87.9211 21.4631 88.3076 21.5898 88.79 21.5898C89.4456 21.5898 89.9868 21.361 90.4136 20.9033C90.8465 20.4395 91.063 19.8581 91.063 19.1592V18.3335Z" fill="#2CB2DB"/>
<path d="M97.9653 21.5991H97.9282V27.3696H95.7759V13.5H97.9282V15.1699H97.9653C98.7013 13.9082 99.7775 13.2773 101.194 13.2773C102.4 13.2773 103.34 13.701 104.014 14.5483C104.688 15.3957 105.025 16.5337 105.025 17.9624C105.025 19.5457 104.645 20.8136 103.884 21.7661C103.124 22.7186 102.084 23.1948 100.767 23.1948C99.5548 23.1948 98.6209 22.6629 97.9653 21.5991ZM97.9097 17.8511V19.0293C97.9097 19.722 98.1292 20.3096 98.5684 20.792C99.0137 21.2744 99.5765 21.5156 100.257 21.5156C101.055 21.5156 101.679 21.2064 102.131 20.5879C102.589 19.9632 102.817 19.0942 102.817 17.981C102.817 17.047 102.604 16.3172 102.177 15.7915C101.757 15.2596 101.185 14.9937 100.461 14.9937C99.694 14.9937 99.0755 15.2658 98.6055 15.8101C98.1416 16.3543 97.9097 17.0347 97.9097 17.8511Z" fill="#2CB2DB"/>
<path d="M106.63 22.7031V20.7085C107.434 21.3208 108.322 21.627 109.293 21.627C110.592 21.627 111.241 21.2435 111.241 20.4766C111.241 20.2601 111.186 20.0776 111.074 19.9292C110.963 19.7746 110.811 19.6385 110.62 19.521C110.434 19.4035 110.211 19.2983 109.952 19.2056C109.698 19.1128 109.414 19.0076 109.098 18.8901C108.708 18.7355 108.356 18.5716 108.041 18.3984C107.731 18.2253 107.472 18.0304 107.261 17.814C107.057 17.5913 106.903 17.3408 106.797 17.0625C106.692 16.7842 106.64 16.4595 106.64 16.0884C106.64 15.6307 106.748 15.2287 106.964 14.8823C107.181 14.5298 107.472 14.236 107.836 14.001C108.201 13.7598 108.616 13.5804 109.08 13.4629C109.543 13.3392 110.023 13.2773 110.518 13.2773C111.396 13.2773 112.181 13.4103 112.874 13.6763V15.5596C112.206 15.1019 111.439 14.873 110.573 14.873C110.301 14.873 110.054 14.9009 109.831 14.9565C109.615 15.0122 109.429 15.0895 109.274 15.1885C109.12 15.2874 108.999 15.408 108.913 15.5503C108.826 15.6864 108.783 15.8379 108.783 16.0049C108.783 16.209 108.826 16.3822 108.913 16.5244C108.999 16.6667 109.126 16.7935 109.293 16.9048C109.466 17.0099 109.67 17.1089 109.905 17.2017C110.146 17.2882 110.422 17.3841 110.731 17.4893C111.139 17.6562 111.504 17.8263 111.826 17.9995C112.153 18.1727 112.432 18.3706 112.661 18.5933C112.889 18.8097 113.066 19.0633 113.189 19.354C113.313 19.6385 113.375 19.9787 113.375 20.3745C113.375 20.8569 113.264 21.2775 113.041 21.6362C112.818 21.995 112.521 22.2918 112.15 22.5269C111.779 22.7619 111.349 22.9351 110.861 23.0464C110.378 23.1639 109.868 23.2227 109.33 23.2227C108.291 23.2227 107.391 23.0495 106.63 22.7031Z" fill="#2CB2DB"/>
<path d="M123.71 23H121.558V21.4971H121.521C120.896 22.6475 119.925 23.2227 118.607 23.2227C116.362 23.2227 115.24 21.8743 115.24 19.1777V13.5H117.392V18.9551C117.392 20.6621 118.051 21.5156 119.368 21.5156C120.005 21.5156 120.528 21.2806 120.936 20.8105C121.35 20.3405 121.558 19.7251 121.558 18.9644V13.5H123.71V23Z" fill="#2CB2DB"/>
<path d="M128.683 23H126.521V8.93555H128.683V23Z" fill="#2CB2DB"/>
<path d="M138.786 23H136.698V21.5156H136.661C136.006 22.6536 135.044 23.2227 133.776 23.2227C132.842 23.2227 132.109 22.9691 131.577 22.4619C131.051 21.9548 130.789 21.2837 130.789 20.4487C130.789 18.6551 131.821 17.6099 133.887 17.313L136.708 16.9141C136.708 15.5596 136.064 14.8823 134.778 14.8823C133.646 14.8823 132.625 15.272 131.716 16.0513V14.168C132.718 13.5742 133.875 13.2773 135.186 13.2773C137.586 13.2773 138.786 14.4587 138.786 16.8213V23ZM136.708 18.3335L134.713 18.6118C134.094 18.6922 133.627 18.8438 133.312 19.0664C133.003 19.2829 132.848 19.6663 132.848 20.2168C132.848 20.6188 132.99 20.9497 133.275 21.2095C133.566 21.4631 133.952 21.5898 134.435 21.5898C135.09 21.5898 135.631 21.361 136.058 20.9033C136.491 20.4395 136.708 19.8581 136.708 19.1592V18.3335Z" fill="#2CB2DB"/>
<path d="M44.3932 2C52.4386 2 59 8.60431 59 16.8V17.5C59 25.8032 52.3352 33 44.3932 33H30V2H44.3932Z" stroke="#C4C0AA" stroke-width="4"/>
<path d="M17.3575 2H30V37.87L24.3834 33.4309L23.8382 33H23.1433H17.3575C9.01677 33 2 25.1203 2 16.8C2 8.68722 8.81373 2 17.3575 2Z" stroke="#2CB2DB" stroke-width="4"/>
</svg>
