<svg width="18" height="14" viewBox="0 0 18 14" fill="none" xmlns="http://www.w3.org/2000/svg">
<path fill-rule="evenodd" clip-rule="evenodd" d="M1.5 0C0.671573 0 0 0.696446 0 1.55556V12.4444C0 13.3036 0.671573 14 1.5 14H16.5C17.3284 14 18 13.3036 18 12.4444V1.55556C18 0.696446 17.3284 0 16.5 0H1.5ZM2.66603 1.68618C2.32138 1.44791 1.85573 1.54449 1.62596 1.9019C1.3962 2.25931 1.48933 2.74221 1.83397 2.98048L8.58397 7.64715C8.8359 7.82132 9.1641 7.82132 9.41603 7.64715L16.166 2.98048C16.5107 2.74221 16.6038 2.25931 16.374 1.9019C16.1443 1.54449 15.6786 1.44791 15.334 1.68618L9 6.06523L2.66603 1.68618Z" fill="#2CB2DB"/>
</svg>
