<svg width="36" height="36" viewBox="0 0 36 36" fill="none" xmlns="http://www.w3.org/2000/svg">
<path d="M18 36C27.9411 36 36 27.9411 36 18C36 8.05888 27.9411 0 18 0C8.05888 0 0 8.05888 0 18C0 27.9411 8.05888 36 18 36Z" fill="white"/>
<path d="M15.8175 15.1937C15.3942 14.8063 15.3942 14.1781 15.8175 13.7906C16.2408 13.4031 16.9271 13.4031 17.3504 13.7906L21.1825 17.2984C21.6058 17.6859 21.6058 18.3141 21.1825 18.7016C20.7592 19.089 20.073 19.089 19.6497 18.7016L15.8175 15.1937Z" fill="#2CB2DB"/>
<path d="M17.3503 22.2094C16.927 22.5969 16.2408 22.5969 15.8175 22.2094C15.3942 21.8219 15.3942 21.1937 15.8175 20.8063L19.6496 17.2984C20.0729 16.911 20.7592 16.911 21.1825 17.2984C21.6058 17.6859 21.6058 18.3141 21.1825 18.7016L17.3503 22.2094Z" fill="#2CB2DB"/>
</svg>
